<svg xmlns="http://www.w3.org/2000/svg" version="1.1" xmlns:xlink="http://www.w3.org/1999/xlink" xmlns:svgjs="http://svgjs.com/svgjs" width="320" height="113.6"><g transform="matrix(1,0,0,1,20,80.6)"><line x1="0" y1="0" x2="300" y2="0" stroke-width="3" stroke="#000000"/><path d="M60,0 L60,-42.599999999999994 L50,-42.599999999999994" stroke-width="1" stroke="#c0c0ff" fill="none"/><rect width="56.70000076293945" height="22.399999618530273" fill-opacity="1" fill="transparent" x="-9.700000762939453" y="-58" rx="2" ry="2"/><text x="47" y="-65.6" font-family="Helvetica" font-size="15pt" text-anchor="end" fill="#c0c0ff"><tspan dy="26" x="47">Anime</tspan></text><line x1="60" y1="-5" x2="60" y2="5" stroke-width="2" stroke="#000000"/><text font-family="Helvetica" font-size="15pt" text-anchor="end" transform="matrix(-1.8369701987210297e-16,-1,1,-1.8369701987210297e-16,60.000000000000014,60)" x="50" y="-23" fill="#000000"><tspan dy="26" x="50"> </tspan></text><circle r="4" cx="60" cy="0" fill="white" stroke="#c0c0ff"/><path d="M128,0 L128,-42.599999999999994 L118,-42.599999999999994" stroke-width="1" stroke="#000000" fill="none"/><rect width="31.116666793823242" height="22.399999618530273" fill-opacity="1" fill="transparent" x="83.88333129882812" y="-58" rx="2" ry="2"/><text x="115" y="-65.6" font-family="Helvetica" font-size="15pt" text-anchor="end" fill="#000000"><tspan dy="26" x="115">List</tspan></text><line x1="128" y1="-5" x2="128" y2="5" stroke-width="2" stroke="#000000"/><text font-family="Helvetica" font-size="15pt" text-anchor="end" transform="matrix(-1.8369701987210297e-16,-1,1,-1.8369701987210297e-16,128.00000000000003,128)" x="118" y="-23" fill="#000000"><tspan dy="26" x="118"> </tspan></text><circle r="4" cx="128" cy="0" fill="white" stroke="#000000"/><path d="M240,0 L240,-42.599999999999994 L230,-42.599999999999994" stroke-width="1" stroke="#cd3f85" fill="none"/><rect width="74.83333587646484" height="22.399999618530273" fill-opacity="1" fill="transparent" x="152.1666717529297" y="-58" rx="2" ry="2"/><text x="227" y="-65.6" font-family="Helvetica" font-size="15pt" text-anchor="end" fill="#cd3f85"><tspan dy="26" x="227">Timeline</tspan></text><line x1="240" y1="-5" x2="240" y2="5" stroke-width="2" stroke="#000000"/><text font-family="Helvetica" font-size="15pt" text-anchor="end" transform="matrix(-1.8369701987210297e-16,-1,1,-1.8369701987210297e-16,240.00000000000006,240)" x="230" y="-23" fill="#000000"><tspan dy="26" x="230"> </tspan></text><circle r="4" cx="240" cy="0" fill="white" stroke="#cd3f85"/><line x1="60" y1="-5" x2="60" y2="5" stroke-width="2" stroke="#000000"/><text font-family="Helvetica" font-size="15pt" text-anchor="end" transform="matrix(-1.8369701987210297e-16,-1,1,-1.8369701987210297e-16,60.000000000000014,60)" x="50" y="-23" fill="#c0c0c0"><tspan dy="26" x="50"> </tspan></text><line x1="240" y1="-5" x2="240" y2="5" stroke-width="2" stroke="#000000"/><text font-family="Helvetica" font-size="15pt" text-anchor="end" transform="matrix(-1.8369701987210297e-16,-1,1,-1.8369701987210297e-16,240.00000000000006,240)" x="230" y="-23" fill="#c0c0c0"><tspan dy="26" x="230"> </tspan></text></g></svg>